<svg width="69" height="83" viewBox="0 0 69 83" fill="none" xmlns="http://www.w3.org/2000/svg">
<g clip-path="url(#clip0_314_275)">
<path d="M31.536 1.21331C30.5243 2.22741 30.7457 3.3049 32.1051 4.03379C33.4329 4.73098 34.982 3.24151 34.4129 1.75205C33.9072 0.452727 32.5478 0.199201 31.536 1.21331ZM33.749 1.53022C34.6344 2.41756 34.1602 3.55843 32.8323 3.68519C32.0418 3.78026 31.789 3.6218 31.4727 2.988C31.1882 2.29079 31.22 2.06896 31.6942 1.53022C32.4212 0.737946 32.9587 0.737946 33.749 1.53022Z" fill="white"/>
<path d="M29.0701 1.84697C29.0701 2.4491 29.1965 3.30474 29.3231 3.74842C29.5758 4.509 29.5758 4.509 29.5758 3.58996C29.5758 3.05123 29.4495 2.19557 29.3231 1.68852L29.0701 0.737793V1.84697Z" fill="white"/>
<path d="M25.1184 1.435C24.7706 1.53007 24.6124 1.7836 24.7073 2.1005C24.8021 2.38572 24.9603 3.17799 25.0867 3.81182C25.3081 5.2062 26.0669 5.42805 27.1102 4.38225C28.5329 2.95616 27.1417 0.927943 25.1184 1.435ZM27.0469 2.22727C27.6475 2.82939 27.4896 3.68504 26.636 4.25547C26.1933 4.54069 25.7506 4.73083 25.6875 4.63576C25.6242 4.5724 25.466 3.90689 25.3397 3.17799C25.15 1.91036 25.1815 1.84698 25.9087 1.84698C26.3196 1.84698 26.8256 2.00543 27.0469 2.22727Z" fill="white"/>
<path d="M51.0426 1.94174C50.6632 2.35372 49.6514 3.65304 48.8296 4.79391C46.9327 7.42426 43.3601 10.625 38.9972 13.5406C37.1636 14.7765 35.4246 16.1392 35.1719 16.5512C34.3498 17.7872 34.0653 19.2132 34.4131 20.2273C34.7925 21.3048 42.5698 28.3401 44.1504 29.0056C46.4585 29.9882 48.0391 28.8154 50.189 24.569C52.7183 19.6252 55.0894 16.2343 58.3141 13.0018C61.0647 10.2447 61.2544 9.95951 61.2544 8.75527C61.2544 7.70948 61.0647 7.29748 60.2111 6.47353C58.0611 4.44531 55.0576 1.91005 54.3937 1.56145C53.2556 0.991015 51.8014 1.14947 51.0426 1.94174ZM59.6735 8.81864C59.6735 9.10386 59.2941 9.706 58.8199 10.1814L57.9348 11.0053V8.81864V6.63197L58.8199 7.45594C59.2941 7.9313 59.6735 8.53342 59.6735 8.81864ZM48.3869 24.569C47.4069 26.5972 45.7946 27.9598 44.8461 27.5795C44.2137 27.3261 40.5148 24.0302 40.8941 24.0302C40.989 24.0302 41.6214 24.1887 42.2853 24.3789C43.771 24.8224 46.5533 24.2838 48.0391 23.2697C48.6081 22.8577 49.1141 22.5725 49.1772 22.6359C49.2405 22.6675 48.8927 23.5549 48.3869 24.569Z" fill="white"/>
<path d="M22.8419 3.01936C23.3477 4.79406 23.2212 5.49125 22.3993 5.49125C21.8302 5.49125 21.5457 5.23771 21.2927 4.47713C20.8817 3.2729 20.281 2.63907 20.6288 3.74826C21.0398 5.17435 21.7037 5.96661 22.5257 5.96661C23.6639 5.96661 23.9484 5.14264 23.4109 3.52641C22.9051 2.03695 22.4625 1.65666 22.8419 3.01936Z" fill="white"/>
<path d="M17.9415 4.38232C17.4989 4.73093 17.4041 4.95276 17.6886 4.826C18.068 4.69922 18.3841 4.98444 18.89 5.96687C19.2694 6.69574 19.6487 7.20281 19.7436 7.10774C19.8384 7.04435 19.5855 6.44223 19.2061 5.80841C18.6371 4.88937 18.5738 4.60415 18.89 4.22386C19.459 3.55835 18.8584 3.65342 17.9415 4.38232Z" fill="white"/>
<path d="M14.9699 6.06182C14.6537 6.31533 14.464 6.75901 14.5273 7.10762C14.6221 7.61466 14.875 7.70973 15.9815 7.61466C16.9616 7.55127 17.3094 7.64634 17.3094 7.99495C17.3094 8.56539 16.4874 9.23089 16.0448 8.97736C15.8867 8.88229 15.7286 8.94568 15.7286 9.10414C15.7286 9.54779 16.2345 9.54779 17.0248 9.13582C17.3726 8.91399 17.6255 8.47031 17.6255 7.96327C17.6255 7.17098 17.5623 7.1393 16.1712 7.36113C14.9066 7.51959 14.7486 7.48791 14.8434 6.98084C14.9066 6.69562 15.2544 6.4104 15.6654 6.34704C16.0448 6.28365 16.2977 6.0935 16.2029 5.93504C15.9499 5.55475 15.6338 5.58646 14.9699 6.06182Z" fill="white"/>
<path d="M10.1327 10.3082L9.53198 11.1955L10.8598 12.3998L12.1877 13.604L12.9148 12.5582L13.6419 11.5124L12.8516 12.178C11.587 13.3188 10.765 12.5266 11.8715 11.2272C12.409 10.5617 12.409 10.5617 11.745 11.1005C10.5753 12.1146 9.53198 11.5124 10.5437 10.3716C10.8282 10.0547 11.0179 9.67439 10.9231 9.57931C10.8282 9.48424 10.4804 9.80114 10.1327 10.3082Z" fill="white"/>
<path d="M7.7931 13.2871C7.1924 13.8892 7.1924 13.9843 7.63501 14.4596C7.88794 14.7449 8.58347 15.2836 9.15254 15.6005L10.1958 16.2027L9.59516 15.5371C8.99446 14.8399 8.99446 14.8399 9.97454 14.8399C10.512 14.8399 11.0178 14.7132 11.1127 14.5547C11.2075 14.428 10.923 14.3646 10.512 14.4596C9.8797 14.5547 9.72161 14.4596 9.72161 13.9843C9.72161 13.3822 9.15254 12.6216 8.70992 12.6216C8.58347 12.6216 8.17248 12.9068 7.7931 13.2871ZM9.40547 13.6991C9.40547 13.8892 9.24739 14.2695 9.0893 14.523C8.8364 14.935 8.74155 14.935 8.26733 14.4596C7.82471 14.016 7.7931 13.8258 8.10924 13.4455C8.52023 12.9385 9.40547 13.0969 9.40547 13.6991Z" fill="white"/>
<path d="M58.1244 15.6007C57.8399 15.9176 58.0929 16.7099 59.1995 18.9917C61.3809 23.5234 61.9815 26.2171 62.0131 31.3194C62.0131 35.0273 61.8867 36.0096 61.1595 38.7032C58.0614 50.0803 48.7347 58.1615 37.1321 59.5241C31.884 60.1264 26.5094 59.2073 21.4825 56.8305C18.5107 55.4044 17.9417 55.3093 17.9417 56.2284C17.9417 56.8939 23.2214 59.3658 26.3512 60.1896C29.5444 61.0453 35.4564 61.3305 38.6811 60.8235C45.1624 59.7461 50.9795 56.6087 55.5954 51.6649C59.3574 47.6401 61.7603 42.9499 62.8985 37.4041C63.7836 33.094 63.5624 27.2629 62.3925 23.3016C61.6022 20.6079 59.3574 15.6958 58.7568 15.3472C58.5987 15.2521 58.3141 15.3472 58.1244 15.6007Z" fill="white"/>
<path d="M7.03448 16.5198C8.36232 17.2804 8.89976 18.4847 8.04615 18.8333C7.79325 18.9283 7.00285 18.7065 6.27572 18.3262C5.54856 17.9776 4.97949 17.8192 4.97949 17.9459C4.97949 18.1044 5.54856 18.4847 6.27572 18.8016C7.79325 19.4988 8.55201 19.2136 8.71007 17.9142C8.80491 17.217 8.58362 16.9952 7.54032 16.4565C5.8331 15.5691 5.45372 15.6325 7.03448 16.5198Z" fill="white"/>
<path d="M4.22057 20.4178C3.14564 21.4953 3.93603 23.3968 5.45356 23.3968C5.86455 23.3968 6.43362 23.1749 6.68655 22.8897C7.25562 22.3193 7.35047 20.9883 6.87624 20.7031C6.65492 20.5763 6.5917 20.7664 6.74976 21.3052C7.00269 22.3193 6.43362 23.0799 5.48517 23.0799C3.99925 23.0799 3.49341 21.3052 4.75801 20.4495C5.13739 20.1643 5.29548 19.9425 5.07418 19.9425C4.88449 19.9108 4.47347 20.1326 4.22057 20.4178Z" fill="white"/>
<path d="M2.92452 24.6324C3.11421 24.7909 3.96782 25.0126 4.82143 25.1077C5.86473 25.2346 6.11766 25.2028 5.6118 25.0445C4.15751 24.5373 2.60838 24.3155 2.92452 24.6324Z" fill="white"/>
<path d="M33.4963 30.1148C20.8502 44.2172 19.6488 45.7702 21.5141 45.5166C22.4626 45.3899 38.5862 27.3893 38.4283 26.6288C38.1753 25.2978 37.1953 25.9951 33.4963 30.1148Z" fill="white"/>
<path d="M3.33529 26.8828C4.82121 27.2314 4.82121 27.3581 3.39853 27.992C1.84938 28.6891 2.22876 29.1013 4.34698 29.0378L5.76966 29.0062L4.50504 28.8161L3.24045 28.5941L4.34698 27.8969C4.94766 27.5167 5.61158 27.1998 5.76966 27.168C6.46519 27.1048 4.4102 26.6294 3.39853 26.6294H2.29199L3.33529 26.8828Z" fill="white"/>
<path d="M3.65156 31.0657C2.79795 31.4144 2.13403 31.7947 2.13403 31.9214C2.13403 32.1115 5.011 33.2208 5.48523 33.2208C5.64331 33.2208 5.51686 33.0622 5.23232 32.8721C4.91616 32.7136 4.66325 32.2066 4.66325 31.7947C4.66325 31.3826 4.91616 30.8756 5.23232 30.717C6.14915 30.1785 5.23232 30.3686 3.65156 31.0657ZM4.34708 31.9214C4.34708 32.3651 4.18902 32.4918 3.7148 32.3651C2.98764 32.175 2.8928 31.7628 3.49348 31.5411C4.18902 31.2559 4.34708 31.3193 4.34708 31.9214Z" fill="white"/>
<path d="M3.71467 34.8687L2.29199 35.5026L4.03082 35.9461C4.97927 36.1681 5.80127 36.3583 5.86451 36.3899C5.89612 36.3899 5.92772 36.2314 5.92772 36.0731C5.92772 35.8829 5.61158 35.756 5.2322 35.756C4.82121 35.756 4.31535 35.6293 4.09405 35.4708C3.77791 35.2806 3.90436 35.1223 4.63152 34.8687C5.16896 34.6786 5.61158 34.4568 5.61158 34.3617C5.61158 34.0765 5.2322 34.1716 3.71467 34.8687Z" fill="white"/>
<path d="M3.93594 36.9918C2.51326 37.9109 2.57649 37.9743 4.6947 37.9109C6.37031 37.8793 6.46515 37.8474 5.2954 37.7524L3.87272 37.6257L4.66309 37.0236C5.64315 36.263 5.13732 36.2312 3.93594 36.9918Z" fill="white"/>
<path d="M12.2824 51.3161C6.05426 55.7845 4.94772 56.7352 5.39034 57.179C5.64325 57.4324 6.49686 56.9254 8.74154 55.119C9.84807 54.2317 10.8914 53.5028 11.1127 53.5028C11.3024 53.5028 10.3855 54.5802 9.08931 55.8796C7.3821 57.5909 6.84463 58.3515 7.09756 58.6051C7.66663 59.1755 9.94292 59.5558 10.8597 59.2071C11.3024 59.017 12.156 58.9535 12.6934 59.0486C14.0213 59.3022 14.1161 59.1755 17.4357 52.9323C20.123 47.8619 20.4708 46.7842 19.4907 46.5941C19.2378 46.5625 15.9814 48.6857 12.2824 51.3161Z" fill="#E51919"/>
<path d="M9.78478 65.7036C9.08925 66.5911 9.05762 66.6862 8.45694 68.9361C8.23564 69.8552 7.95111 70.2989 7.57173 70.2989C7.06587 70.3305 7.06587 70.3305 7.57173 70.6474C7.98272 70.8694 8.07756 71.2178 7.95111 71.9784C7.5401 74.387 6.81296 78.1265 6.65488 78.6653C6.24389 80.123 5.86451 77.9047 5.57997 72.1053C5.42189 68.7778 5.2322 65.8305 5.13735 65.6085C4.97927 65.165 3.84113 65.1015 3.55659 65.5453C3.46175 65.7036 2.86107 67.8903 2.26038 70.3621C-0.395291 81.2639 -0.490136 82.0244 1.15385 82.0244H2.07069L2.03907 79.7111C2.03907 77.2074 3.68307 68.2389 4.06245 68.6192C4.1889 68.7459 4.44183 71.2178 4.63152 74.1018C4.82121 76.9856 5.10575 79.8694 5.29544 80.5349C5.67482 81.8659 6.40195 82.3413 7.03426 81.6758C7.44525 81.2323 8.42533 77.1441 9.08925 73.1511C9.4054 71.3763 9.56348 70.996 10.3538 70.5523C11.7765 69.7285 12.5985 68.1755 12.5037 66.496C12.4088 65.165 12.3456 65.0699 11.4288 64.9749C10.67 64.9114 10.2906 65.0699 9.78478 65.7036ZM11.8081 67.2247C11.6184 68.0804 10.0693 70.1088 9.81638 69.8552C9.59509 69.6334 10.2906 67.3517 10.8597 66.5592C11.492 65.6404 12.0927 66.0839 11.8081 67.2247Z" fill="white"/>
<path d="M56.9232 65.5455C55.5636 66.3693 54.6151 68.3026 54.6151 70.2356C54.6151 72.1371 55.1527 73.7849 55.7851 73.7849C56.1327 73.7849 56.196 73.4997 56.0378 72.3907C55.7851 70.7426 56.4805 67.9539 57.4923 66.718C59.1995 64.5313 59.1046 66.4011 57.1444 73.8168C56.8284 74.9577 56.7966 74.9577 54.8681 75.1794C52.2758 75.433 50.284 76.4153 49.6516 77.7464C49.209 78.6655 49.209 78.8556 49.715 79.9014C50.3156 81.2006 51.3904 81.993 52.8449 82.2464C54.3624 82.5 55.8481 81.0423 57.176 78.0632C58.251 75.7182 58.251 75.6864 59.4523 75.6864C60.0846 75.6864 60.6222 75.5281 60.6222 75.3696C60.6222 75.1794 60.211 75.0527 59.7368 75.0527C59.231 75.0527 58.7568 74.9893 58.662 74.8942C58.5986 74.7991 58.7883 73.5316 59.1677 72.0736L59.8001 69.4116L61.3176 69.4434C63.0882 69.5067 63.0564 69.3165 62.2028 73.7217C61.8552 75.5281 61.6655 77.3345 61.7603 77.778C61.9815 78.602 62.7403 79.1724 63.6888 79.1724C64.5424 79.1724 68.2098 75.2429 68.2098 74.3238C68.2098 74.1971 67.3244 74.9893 66.2181 76.1301C65.143 77.3026 64.0681 78.2217 63.8785 78.2217C63.6888 78.2217 63.2778 78 62.9933 77.6829C62.3294 77.0174 62.4558 76.3519 64.0048 72.3588L65.2696 69.1898L67.0399 69.2849C68.1465 69.3484 68.8419 69.2849 68.8419 69.0632C68.8419 68.7461 66.9135 68.0806 65.8702 68.0806C65.396 68.0806 65.3327 67.9223 65.4908 67.0032C65.8702 65.0066 64.3211 65.1652 63.7521 67.1617C63.3409 68.4609 63.3409 68.4609 60.9067 68.5243C59.7686 68.5559 59.7368 68.5243 59.8949 67.542C59.9898 66.9716 59.9898 66.1791 59.8634 65.7356C59.6104 64.7214 58.409 64.6264 56.9232 65.5455ZM56.3541 76.7006C56.2275 77.1125 55.7218 78.3168 55.2475 79.3942C54.4888 81.0423 54.2042 81.3907 53.5718 81.3907C52.5285 81.3907 51.1376 79.933 51.1376 78.8556C51.1376 78.3803 51.4222 77.7464 51.7382 77.4611C52.497 76.764 54.4888 76.0351 55.6584 76.0034C56.449 76.0034 56.5438 76.0985 56.3541 76.7006Z" fill="white"/>
<path d="M43.4551 65.7672C43.3603 65.9257 42.9176 67.5735 42.4433 69.4434C41.7161 72.1686 41.4949 72.7709 41.2419 72.2956C40.5149 70.9962 39.5664 70.9327 38.1438 72.1054C37.6062 72.5808 36.8159 73.6898 36.4048 74.6089C35.8675 75.8132 35.2984 76.4787 34.1918 77.2393C32.3582 78.4434 31.4097 78.5069 30.7141 77.4295C30.4295 76.9857 30.2398 76.5738 30.3031 76.542C31.5677 75.6231 33.3697 74.1652 33.6543 73.7849C34.3815 72.8976 34.5079 71.8202 33.9388 71.4081C32.2316 70.1405 29.0068 73.3414 29.0068 76.2886C29.0068 77.873 30.0819 79.1724 31.378 79.1724C32.3264 79.1724 34.3815 78.19 34.9821 77.4611C35.5829 76.764 35.7726 76.8272 36.1835 77.9048C36.4681 78.6654 36.7211 78.8556 37.4798 78.8556C38.0489 78.8556 38.8392 78.5385 39.3768 78.0631C40.5149 77.1124 40.7046 77.0808 40.7046 77.8414C40.7046 78.5385 41.3052 79.1724 41.9376 79.1724C42.6015 79.1724 44.2769 77.8098 45.6365 76.1617C47.3753 74.0385 46.7747 74.1335 44.5615 76.3518C43.5182 77.4295 42.4433 78.2217 42.2221 78.1582C41.3367 77.873 41.6213 76.2568 43.1073 73.0561C44.3403 70.4257 44.6563 69.4115 44.7512 67.6686C44.8778 65.7037 44.846 65.5454 44.2454 65.5454C43.866 65.5454 43.5182 65.6405 43.4551 65.7672ZM32.8955 73.2463C32.6743 73.6898 32.1052 74.3237 31.5677 74.704C30.7458 75.306 30.5877 75.3379 30.5877 74.8941C30.5877 74.1335 31.4728 72.5808 32.0737 72.2321C32.8955 71.7883 33.3067 72.3272 32.8955 73.2463ZM40.3252 72.2637C40.5464 72.4857 40.7046 72.9611 40.7046 73.373C40.7046 73.7849 40.831 74.1019 40.9891 74.1019C41.1155 74.1019 41.1788 74.4504 41.1155 74.8625C40.8943 75.9083 38.7128 77.9999 37.9856 77.8414C36.7211 77.6196 37.0687 74.6405 38.5547 72.9927C39.598 71.7883 39.7561 71.6933 40.3252 72.2637Z" fill="white"/>
<path d="M27.3314 66.084C27.2048 66.1791 27.1099 66.5912 27.1099 66.9397C27.1099 67.32 26.7623 69.1898 26.2881 71.1547C25.4975 74.5773 25.4345 74.7356 23.8852 76.2886C21.1979 78.9823 20.4076 78.1901 21.7354 74.2287C22.4626 71.9785 22.4942 71.5666 21.9251 71.5666C21.1663 71.5666 20.534 72.4223 20.3127 73.7533C20.0282 75.4011 17.2777 78.602 16.6454 77.9681C16.2976 77.6513 16.2976 77.1443 16.6138 75.3061C16.8983 73.7217 16.8983 72.9611 16.677 72.8976C16.5189 72.8342 16.3608 72.4539 16.3608 72.042C16.3608 69.7919 12.9464 71.5982 11.587 74.5773C10.8282 76.2252 10.7966 78.4118 11.5237 78.7921C12.1876 79.204 13.7368 78.7287 14.6536 77.873L15.3492 77.2075L15.4756 77.9681C15.5389 78.5385 15.7918 78.7287 16.5505 78.7921C17.3725 78.8872 17.7203 78.6654 18.7004 77.5562C19.7753 76.2886 19.8385 76.2568 19.8385 77.0174C19.8385 77.9681 20.7237 78.8556 21.6722 78.8556C22.0516 78.8556 22.9052 78.3168 23.6323 77.6513L24.8969 76.4153L24.8336 77.7147C24.7706 78.6654 24.8654 79.0139 25.2448 79.109C25.6557 79.1724 26.0666 77.9681 27.3629 72.7709C28.2798 69.2214 29.0068 66.2426 29.0068 66.084C29.0068 65.7988 27.6159 65.7988 27.3314 66.084ZM15.2859 72.7075C15.1595 73.0243 15.2227 73.1194 15.4756 72.9611C15.9815 72.644 15.5705 75.4962 14.9382 76.4469C14.6852 76.8272 14.1162 77.3344 13.6736 77.5246C13.0096 77.8414 12.8516 77.7779 12.5986 77.3026C12.1876 76.542 12.7251 74.5455 13.7052 73.2145C14.5272 72.1687 15.6337 71.7884 15.2859 72.7075Z" fill="white"/>
<path d="M22.5891 66.8447C22.02 67.1932 21.8619 68.239 22.3361 68.5561C22.6207 68.7143 23.6324 67.9222 23.6324 67.5103C23.6008 66.8764 23.1265 66.5595 22.5891 66.8447Z" fill="white"/>
</g>
<defs>
<clipPath id="clip0_314_275">
<rect width="69" height="82" fill="white" transform="translate(0 0.5)"/>
</clipPath>
</defs>
</svg>
