<svg width="69" height="82" viewBox="0 0 69 82" fill="none" xmlns="http://www.w3.org/2000/svg">
<g clip-path="url(#clip0_314_250)">
<path d="M31.536 0.713079C30.5243 1.72718 30.7457 2.80467 32.1051 3.53357C33.4329 4.23076 34.982 2.74128 34.4129 1.25182C33.9072 -0.0475015 32.5478 -0.301028 31.536 0.713079ZM33.749 1.02999C34.6344 1.91733 34.1602 3.0582 32.8323 3.18496C32.0418 3.28003 31.789 3.12157 31.4727 2.48777C31.1882 1.79057 31.22 1.56873 31.6942 1.02999C32.4212 0.237717 32.9587 0.237717 33.749 1.02999Z" fill="black"/>
<path d="M29.0701 1.34687C29.0701 1.94899 29.1965 2.80464 29.3231 3.24832C29.5758 4.0089 29.5758 4.0089 29.5758 3.08986C29.5758 2.55113 29.4495 1.69546 29.3231 1.18841L29.0701 0.237686V1.34687Z" fill="black"/>
<path d="M25.1184 0.934906C24.7706 1.02998 24.6124 1.2835 24.7073 1.60041C24.8021 1.88563 24.9603 2.6779 25.0867 3.31172C25.3081 4.70611 26.0669 4.92796 27.1102 3.88216C28.5329 2.45607 27.1417 0.427851 25.1184 0.934906ZM27.0469 1.72718C27.6475 2.3293 27.4896 3.18495 26.636 3.75538C26.1933 4.0406 25.7506 4.23074 25.6875 4.13567C25.6242 4.0723 25.466 3.4068 25.3397 2.6779C25.15 1.41027 25.1815 1.34689 25.9087 1.34689C26.3196 1.34689 26.8256 1.50534 27.0469 1.72718Z" fill="black"/>
<path d="M51.0426 1.44197C50.6632 1.85395 49.6514 3.15327 48.8296 4.29414C46.9327 6.92449 43.3601 10.1252 38.9972 13.0408C37.1636 14.2767 35.4246 15.6394 35.1719 16.0514C34.3498 17.2874 34.0653 18.7135 34.4131 19.7276C34.7925 20.8051 42.5698 27.8403 44.1504 28.5058C46.4585 29.4884 48.0391 28.3157 50.189 24.0693C52.7183 19.1254 55.0894 15.7345 58.3141 12.5021C61.0647 9.74496 61.2544 9.45974 61.2544 8.2555C61.2544 7.20971 61.0647 6.79771 60.2111 5.97376C58.0611 3.94553 55.0576 1.41028 54.3937 1.06168C53.2556 0.491244 51.8014 0.649699 51.0426 1.44197ZM59.6735 8.31887C59.6735 8.60409 59.2941 9.20623 58.8199 9.68159L57.9348 10.5055V8.31887V6.1322L58.8199 6.95617C59.2941 7.43153 59.6735 8.03365 59.6735 8.31887ZM48.3869 24.0693C47.4069 26.0974 45.7946 27.46 44.8461 27.0797C44.2137 26.8264 40.5148 23.5305 40.8941 23.5305C40.989 23.5305 41.6214 23.6889 42.2853 23.8791C43.771 24.3226 46.5533 23.784 48.0391 22.7699C48.6081 22.3579 49.1141 22.0727 49.1772 22.1361C49.2405 22.1678 48.8927 23.0551 48.3869 24.0693Z" fill="#E51919"/>
<path d="M22.8419 2.51942C23.3477 4.29412 23.2212 4.99131 22.3993 4.99131C21.8302 4.99131 21.5457 4.73777 21.2927 3.97719C20.8817 2.77296 20.281 2.13913 20.6288 3.24832C21.0398 4.67441 21.7037 5.46667 22.5257 5.46667C23.6639 5.46667 23.9484 4.6427 23.4109 3.02647C22.9051 1.53701 22.4625 1.15672 22.8419 2.51942Z" fill="black"/>
<path d="M17.9415 3.88212C17.4989 4.23073 17.4041 4.45256 17.6886 4.3258C18.068 4.19902 18.3841 4.48424 18.89 5.46667C19.2694 6.19554 19.6487 6.70261 19.7436 6.60754C19.8384 6.54415 19.5855 5.94203 19.2061 5.30821C18.6371 4.38917 18.5738 4.10395 18.89 3.72366C19.459 3.05815 18.8584 3.15323 17.9415 3.88212Z" fill="black"/>
<path d="M14.9699 5.56176C14.6537 5.81527 14.464 6.25895 14.5273 6.60756C14.6221 7.1146 14.875 7.20967 15.9815 7.1146C16.9616 7.05121 17.3094 7.14628 17.3094 7.49489C17.3094 8.06532 16.4874 8.73083 16.0448 8.4773C15.8867 8.38222 15.7286 8.44561 15.7286 8.60408C15.7286 9.04773 16.2345 9.04773 17.0248 8.63576C17.3726 8.41393 17.6255 7.97025 17.6255 7.46321C17.6255 6.67092 17.5623 6.63924 16.1712 6.86107C14.9066 7.01953 14.7486 6.98785 14.8434 6.48078C14.9066 6.19556 15.2544 5.91034 15.6654 5.84698C16.0448 5.78359 16.2977 5.59344 16.2029 5.43498C15.9499 5.05469 15.6338 5.0864 14.9699 5.56176Z" fill="black"/>
<path d="M10.1327 9.80829L9.53198 10.6957L10.8598 11.8999L12.1877 13.1041L12.9148 12.0583L13.6419 11.0126L12.8516 11.6781C11.587 12.8189 10.765 12.0267 11.8715 10.7273C12.409 10.0618 12.409 10.0618 11.745 10.6006C10.5753 11.6147 9.53198 11.0126 10.5437 9.87168C10.8282 9.55478 11.0179 9.17449 10.9231 9.07942C10.8282 8.98435 10.4804 9.30125 10.1327 9.80829Z" fill="black"/>
<path d="M7.7931 12.7872C7.1924 13.3894 7.1924 13.4844 7.63501 13.9598C7.88794 14.245 8.58347 14.7838 9.15254 15.1007L10.1958 15.7028L9.59516 15.0373C8.99446 14.3401 8.99446 14.3401 9.97454 14.3401C10.512 14.3401 11.0178 14.2133 11.1127 14.0549C11.2075 13.9281 10.923 13.8647 10.512 13.9598C9.8797 14.0549 9.72161 13.9598 9.72161 13.4844C9.72161 12.8823 9.15254 12.1217 8.70992 12.1217C8.58347 12.1217 8.17248 12.407 7.7931 12.7872ZM9.40547 13.1992C9.40547 13.3894 9.24739 13.7696 9.0893 14.0232C8.8364 14.4352 8.74155 14.4352 8.26733 13.9598C7.82471 13.5161 7.7931 13.326 8.10924 12.9457C8.52023 12.4386 9.40547 12.5971 9.40547 13.1992Z" fill="black"/>
<path d="M58.1244 15.1007C57.8399 15.4176 58.0929 16.2099 59.1995 18.4916C61.3809 23.0234 61.9815 25.7171 62.0131 30.8194C62.0131 34.5272 61.8867 35.5096 61.1595 38.2032C58.0614 49.5803 48.7347 57.6614 37.1321 59.0241C31.884 59.6264 26.5094 58.7072 21.4825 56.3304C18.5107 54.9043 17.9417 54.8093 17.9417 55.7284C17.9417 56.3939 23.2214 58.8658 26.3512 59.6896C29.5444 60.5452 35.4564 60.8304 38.6811 60.3235C45.1624 59.2461 50.9795 56.1087 55.5954 51.1649C59.3574 47.14 61.7603 42.4498 62.8985 36.904C63.7836 32.5939 63.5624 26.7629 62.3925 22.8016C61.6022 20.1078 59.3574 15.1958 58.7568 14.8472C58.5987 14.7521 58.3141 14.8472 58.1244 15.1007Z" fill="black"/>
<path d="M7.03448 16.0197C8.36232 16.7803 8.89976 17.9846 8.04615 18.3332C7.79325 18.4282 7.00285 18.2064 6.27572 17.8261C5.54856 17.4775 4.97949 17.319 4.97949 17.4458C4.97949 17.6043 5.54856 17.9846 6.27572 18.3015C7.79325 18.9987 8.55201 18.7134 8.71007 17.4141C8.80491 16.7169 8.58362 16.4951 7.54032 15.9563C5.8331 15.069 5.45372 15.1324 7.03448 16.0197Z" fill="black"/>
<path d="M4.22057 19.9177C3.14564 20.9952 3.93603 22.8967 5.45356 22.8967C5.86455 22.8967 6.43362 22.6748 6.68655 22.3896C7.25562 21.8192 7.35047 20.4882 6.87624 20.2029C6.65492 20.0762 6.5917 20.2663 6.74976 20.8051C7.00269 21.8192 6.43362 22.5798 5.48517 22.5798C3.99925 22.5798 3.49341 20.8051 4.75801 19.9494C5.13739 19.6642 5.29548 19.4424 5.07418 19.4424C4.88449 19.4107 4.47347 19.6325 4.22057 19.9177Z" fill="black"/>
<path d="M2.92452 24.1325C3.11421 24.291 3.96782 24.5128 4.82143 24.6078C5.86473 24.7348 6.11766 24.7029 5.6118 24.5446C4.15751 24.0374 2.60838 23.8156 2.92452 24.1325Z" fill="black"/>
<path d="M33.4963 29.6151C20.8502 43.7174 19.6488 45.2704 21.5141 45.0168C22.4626 44.8901 38.5862 26.8896 38.4283 26.129C38.1753 24.798 37.1953 25.4953 33.4963 29.6151Z" fill="black"/>
<path d="M3.33529 26.3826C4.82121 26.7313 4.82121 26.858 3.39853 27.4919C1.84938 28.189 2.22876 28.6011 4.34698 28.5377L5.76966 28.5061L4.50504 28.3159L3.24045 28.0939L4.34698 27.3968C4.94766 27.0165 5.61158 26.6997 5.76966 26.6678C6.46519 26.6046 4.4102 26.1292 3.39853 26.1292H2.29199L3.33529 26.3826Z" fill="black"/>
<path d="M3.65156 30.5658C2.79795 30.9145 2.13403 31.2948 2.13403 31.4215C2.13403 31.6116 5.011 32.7209 5.48523 32.7209C5.64331 32.7209 5.51686 32.5623 5.23232 32.3722C4.91616 32.2136 4.66325 31.7067 4.66325 31.2948C4.66325 30.8826 4.91616 30.3757 5.23232 30.2171C6.14915 29.6785 5.23232 29.8687 3.65156 30.5658ZM4.34708 31.4215C4.34708 31.8652 4.18902 31.9919 3.7148 31.8652C2.98764 31.6751 2.8928 31.2629 3.49348 31.0412C4.18902 30.7559 4.34708 30.8194 4.34708 31.4215Z" fill="black"/>
<path d="M3.71467 34.3687L2.29199 35.0026L4.03082 35.4461C4.97927 35.6681 5.80127 35.8582 5.86451 35.8899C5.89612 35.8899 5.92772 35.7313 5.92772 35.573C5.92772 35.3829 5.61158 35.256 5.2322 35.256C4.82121 35.256 4.31535 35.1293 4.09405 34.9707C3.77791 34.7806 3.90436 34.6223 4.63152 34.3687C5.16896 34.1785 5.61158 33.9568 5.61158 33.8617C5.61158 33.5765 5.2322 33.6716 3.71467 34.3687Z" fill="black"/>
<path d="M3.93594 36.4919C2.51326 37.411 2.57649 37.4745 4.6947 37.411C6.37031 37.3794 6.46515 37.3476 5.2954 37.2525L3.87272 37.1258L4.66309 36.5238C5.64315 35.7632 5.13732 35.7313 3.93594 36.4919Z" fill="black"/>
<path d="M12.2824 50.8162C6.05426 55.2846 4.94772 56.2354 5.39034 56.6791C5.64325 56.9325 6.49686 56.4255 8.74154 54.6191C9.84807 53.7319 10.8914 53.0029 11.1127 53.0029C11.3024 53.0029 10.3855 54.0803 9.08931 55.3797C7.3821 57.091 6.84463 57.8516 7.09756 58.1052C7.66663 58.6756 9.94292 59.0559 10.8597 58.7072C11.3024 58.5171 12.156 58.4536 12.6934 58.5487C14.0213 58.8023 14.1161 58.6756 17.4357 52.4325C20.123 47.362 20.4708 46.2844 19.4907 46.0942C19.2378 46.0626 15.9814 48.1858 12.2824 50.8162Z" fill="#E51919"/>
<path d="M9.78478 65.2038C9.08925 66.0913 9.05762 66.1864 8.45694 68.4362C8.23564 69.3554 7.95111 69.7991 7.57173 69.7991C7.06587 69.8307 7.06587 69.8307 7.57173 70.1475C7.98272 70.3695 8.07756 70.718 7.95111 71.4786C7.5401 73.8872 6.81296 77.6267 6.65488 78.1655C6.24389 79.6232 5.86451 77.4049 5.57997 71.6055C5.42189 68.2779 5.2322 65.3307 5.13735 65.1087C4.97927 64.6652 3.84113 64.6017 3.55659 65.0455C3.46175 65.2038 2.86107 67.3905 2.26038 69.8623C-0.395291 80.7641 -0.490136 81.5246 1.15385 81.5246H2.07069L2.03907 79.2113C2.03907 76.7075 3.68307 67.7391 4.06245 68.1194C4.1889 68.2461 4.44183 70.718 4.63152 73.602C4.82121 76.4858 5.10575 79.3696 5.29544 80.0351C5.67482 81.3661 6.40195 81.8415 7.03426 81.176C7.44525 80.7324 8.42533 76.6443 9.08925 72.6513C9.4054 70.8765 9.56348 70.4962 10.3538 70.0525C11.7765 69.2287 12.5985 67.6757 12.5037 65.9962C12.4088 64.6652 12.3456 64.5701 11.4288 64.475C10.67 64.4116 10.2906 64.5701 9.78478 65.2038ZM11.8081 66.7249C11.6184 67.5806 10.0693 69.609 9.81638 69.3554C9.59509 69.1336 10.2906 66.8519 10.8597 66.0594C11.492 65.1406 12.0927 65.5841 11.8081 66.7249Z" fill="black"/>
<path d="M56.9232 65.0455C55.5636 65.8693 54.6151 67.8026 54.6151 69.7357C54.6151 71.6371 55.1527 73.2849 55.7851 73.2849C56.1327 73.2849 56.196 72.9997 56.0378 71.8907C55.7851 70.2426 56.4805 67.4539 57.4923 66.218C59.1995 64.0313 59.1046 65.9011 57.1444 73.3168C56.8284 74.4577 56.7966 74.4577 54.8681 74.6794C52.2758 74.933 50.284 75.9154 49.6516 77.2464C49.209 78.1655 49.209 78.3556 49.715 79.4014C50.3156 80.7006 51.3904 81.493 52.8449 81.7464C54.3624 82 55.8481 80.5423 57.176 77.5632C58.251 75.2182 58.251 75.1864 59.4523 75.1864C60.0846 75.1864 60.6222 75.0281 60.6222 74.8696C60.6222 74.6794 60.211 74.5527 59.7368 74.5527C59.231 74.5527 58.7568 74.4893 58.662 74.3942C58.5986 74.2991 58.7883 73.0316 59.1677 71.5736L59.8001 68.9116L61.3176 68.9435C63.0882 69.0067 63.0564 68.8165 62.2028 73.2217C61.8552 75.0281 61.6655 76.8345 61.7603 77.278C61.9815 78.102 62.7403 78.6725 63.6888 78.6725C64.5424 78.6725 68.2098 74.7429 68.2098 73.8238C68.2098 73.6971 67.3244 74.4893 66.2181 75.6301C65.143 76.8026 64.0681 77.7217 63.8785 77.7217C63.6888 77.7217 63.2778 77.5 62.9933 77.1829C62.3294 76.5174 62.4558 75.8519 64.0048 71.8589L65.2696 68.6899L67.0399 68.7849C68.1465 68.8484 68.8419 68.7849 68.8419 68.5632C68.8419 68.2461 66.9135 67.5806 65.8702 67.5806C65.396 67.5806 65.3327 67.4223 65.4908 66.5032C65.8702 64.5067 64.3211 64.6652 63.7521 66.6617C63.3409 67.9609 63.3409 67.9609 60.9067 68.0244C59.7686 68.056 59.7368 68.0243 59.8949 67.042C59.9898 66.4716 59.9898 65.6792 59.8634 65.2356C59.6104 64.2215 58.409 64.1264 56.9232 65.0455ZM56.3541 76.2006C56.2275 76.6125 55.7218 77.8168 55.2475 78.8942C54.4888 80.5423 54.2042 80.8907 53.5718 80.8907C52.5285 80.8907 51.1376 79.433 51.1376 78.3556C51.1376 77.8803 51.4222 77.2464 51.7382 76.9612C52.497 76.264 54.4888 75.5351 55.6584 75.5035C56.449 75.5035 56.5438 75.5985 56.3541 76.2006Z" fill="black"/>
<path d="M43.4551 65.2672C43.3603 65.4258 42.9176 67.0736 42.4433 68.9435C41.7161 71.6687 41.4949 72.271 41.2419 71.7956C40.5149 70.4962 39.5664 70.4328 38.1438 71.6055C37.6062 72.0809 36.8159 73.1899 36.4048 74.109C35.8675 75.3133 35.2984 75.9788 34.1918 76.7394C32.3582 77.9435 31.4097 78.007 30.7141 76.9295C30.4295 76.4858 30.2398 76.0739 30.3031 76.042C31.5677 75.1232 33.3697 73.6652 33.6543 73.2849C34.3815 72.3977 34.5079 71.3203 33.9388 70.9081C32.2316 69.6406 29.0068 72.8414 29.0068 75.7887C29.0068 77.3731 30.0819 78.6725 31.378 78.6725C32.3264 78.6725 34.3815 77.6901 34.9821 76.9612C35.5829 76.264 35.7726 76.3273 36.1835 77.4049C36.4681 78.1655 36.7211 78.3556 37.4798 78.3556C38.0489 78.3556 38.8392 78.0386 39.3768 77.5632C40.5149 76.6125 40.7046 76.5809 40.7046 77.3414C40.7046 78.0386 41.3052 78.6725 41.9376 78.6725C42.6015 78.6725 44.2769 77.3098 45.6365 75.6618C47.3753 73.5386 46.7747 73.6336 44.5615 75.8519C43.5182 76.9295 42.4433 77.7217 42.2221 77.6583C41.3367 77.3731 41.6213 75.7568 43.1073 72.5562C44.3403 69.9258 44.6563 68.9116 44.7512 67.1687C44.8778 65.2038 44.846 65.0455 44.2454 65.0455C43.866 65.0455 43.5182 65.1406 43.4551 65.2672ZM32.8955 72.7464C32.6743 73.1899 32.1052 73.8238 31.5677 74.2041C30.7458 74.8061 30.5877 74.838 30.5877 74.3942C30.5877 73.6336 31.4728 72.0808 32.0737 71.7322C32.8955 71.2884 33.3067 71.8272 32.8955 72.7464ZM40.3252 71.7638C40.5464 71.9858 40.7046 72.4611 40.7046 72.873C40.7046 73.2849 40.831 73.602 40.9891 73.602C41.1155 73.602 41.1788 73.9505 41.1155 74.3626C40.8943 75.4084 38.7128 77.5 37.9856 77.3414C36.7211 77.1197 37.0687 74.1406 38.5547 72.4928C39.598 71.2884 39.7561 71.1934 40.3252 71.7638Z" fill="black"/>
<path d="M27.3314 65.5841C27.2048 65.6791 27.1099 66.0913 27.1099 66.4397C27.1099 66.82 26.7623 68.6899 26.2881 70.6548C25.4975 74.0774 25.4345 74.2357 23.8852 75.7887C21.1979 78.4823 20.4076 77.6901 21.7354 73.7287C22.4626 71.4786 22.4942 71.0667 21.9251 71.0667C21.1663 71.0667 20.534 71.9223 20.3127 73.2533C20.0282 74.9012 17.2777 78.102 16.6454 77.4681C16.2976 77.1513 16.2976 76.6443 16.6138 74.8061C16.8983 73.2217 16.8983 72.4611 16.677 72.3977C16.5189 72.3342 16.3608 71.9539 16.3608 71.542C16.3608 69.2919 12.9464 71.0983 11.587 74.0774C10.8282 75.7252 10.7966 77.9119 11.5237 78.2922C12.1876 78.7041 13.7368 78.2287 14.6536 77.3731L15.3492 76.7076L15.4756 77.4681C15.5389 78.0386 15.7918 78.2287 16.5505 78.2922C17.3725 78.3872 17.7203 78.1655 18.7004 77.0562C19.7753 75.7887 19.8385 75.7568 19.8385 76.5174C19.8385 77.4681 20.7237 78.3556 21.6722 78.3556C22.0516 78.3556 22.9052 77.8168 23.6323 77.1513L24.8969 75.9154L24.8336 77.2148C24.7706 78.1655 24.8654 78.5139 25.2448 78.609C25.6557 78.6725 26.0666 77.4681 27.3629 72.271C28.2798 68.7215 29.0068 65.7426 29.0068 65.5841C29.0068 65.2989 27.6159 65.2989 27.3314 65.5841ZM15.2859 72.2075C15.1595 72.5244 15.2227 72.6194 15.4756 72.4611C15.9815 72.1441 15.5705 74.9962 14.9382 75.947C14.6852 76.3273 14.1162 76.8345 13.6736 77.0246C13.0096 77.3414 12.8516 77.278 12.5986 76.8026C12.1876 76.042 12.7251 74.0455 13.7052 72.7145C14.5272 71.6687 15.6337 71.2884 15.2859 72.2075Z" fill="black"/>
<path d="M22.5891 66.3449C22.02 66.6933 21.8619 67.7391 22.3361 68.0562C22.6207 68.2145 23.6324 67.4223 23.6324 67.0104C23.6008 66.3765 23.1265 66.0597 22.5891 66.3449Z" fill="black"/>
</g>
<defs>
<clipPath id="clip0_314_250">
<rect width="69" height="82" fill="white"/>
</clipPath>
</defs>
</svg>
